<svg width="40" height="40" viewBox="0 0 40 40" fill="none" xmlns="http://www.w3.org/2000/svg">
<path d="M6.00001 15L34 15M6.00001 25L34 25M19.1666 5C16.3589 9.49935 14.8703 14.6964 14.8703 20C14.8703 25.3036 16.3589 30.5006 19.1666 35M20.8333 5C23.6411 9.49935 25.1297 14.6964 25.1297 20C25.1297 25.3036 23.6411 30.5006 20.8333 35M35 20C35 28.2843 28.2843 35 20 35C11.7157 35 5 28.2843 5 20C5 11.7157 11.7157 5 20 5C28.2843 5 35 11.7157 35 20Z" stroke="currentColor" stroke-width="2" stroke-linecap="round" stroke-linejoin="round"/>
</svg>
